<?xml version="1.0" encoding="UTF-8"?>
<svg version="1.1" xmlns="http://www.w3.org/2000/svg" width="390" height="336">
<path d="M0 0 C128.7 0 257.4 0 390 0 C390 110.88 390 221.76 390 336 C261.3 336 132.6 336 0 336 C0 225.12 0 114.24 0 0 Z " fill="#C8D5E7" transform="translate(0,0)"/>
<path d="M0 0 C21.77939571 9.6404841 42.04646586 21.71472146 59.77734375 37.72167969 C60.61394531 38.4603125 61.45054687 39.19894531 62.3125 39.95996094 C62.97378906 40.58773437 63.63507813 41.21550781 64.31640625 41.86230469 C69.626964 44.3939831 76.25185804 41.94052806 81.82324219 40.86669922 C92.52489504 38.92285342 103.15814792 38.68886813 114 38.64746094 C115.13714951 38.63608597 115.13714951 38.63608597 116.29727173 38.6244812 C127.16082248 38.53655823 137.12913619 39.71660075 147.75 42.02246094 C154.3324364 43.65226322 154.3324364 43.65226322 160.51953125 41.87011719 C161.64897076 40.70220528 162.73041509 39.48690595 163.7734375 38.24121094 C166.17815451 35.54184481 168.88279597 33.38728257 171.75 31.20996094 C172.30631104 30.7874707 172.86262207 30.36498047 173.43579102 29.9296875 C193.36368365 14.99851382 223.32583678 -6.92243189 249.5546875 -5.31738281 C254.63976972 -4.53019037 256.80307781 -2.15860112 259.75 1.83496094 C269.08676478 16.74984417 272.33682978 36.68652732 272.75 54.02246094 C272.77578125 54.84214355 272.8015625 55.66182617 272.828125 56.50634766 C273.59487048 83.30889445 271.27525348 110.8337928 261.5 136.02246094 C260.19989019 140.06536023 259.43400456 143.84145254 259.0625 148.06933594 C258.96485352 149.16761719 258.86720703 150.26589844 258.76660156 151.39746094 C258.38171909 156.26981923 258.04116819 161.14361838 257.75 166.02246094 C260.39 166.35246094 263.03 166.68246094 265.75 167.02246094 C265.75 169.00246094 265.75 170.98246094 265.75 173.02246094 C262.45 173.02246094 259.15 173.02246094 255.75 173.02246094 C255.61722656 173.78171875 255.48445313 174.54097656 255.34765625 175.32324219 C255.17105469 176.31710938 254.99445313 177.31097656 254.8125 178.33496094 C254.63847656 179.32109375 254.46445312 180.30722656 254.28515625 181.32324219 C253.75 184.02246094 253.75 184.02246094 252.75 187.02246094 C253.78447266 187.0959375 253.78447266 187.0959375 254.83984375 187.17089844 C271.20007452 188.47253545 271.20007452 188.47253545 273.75 191.02246094 C273.79063832 192.68863209 273.792721 194.35634189 273.75 196.02246094 C265.8677798 195.5064691 258.40541695 193.93031563 250.75 192.02246094 C250.58564453 192.94865234 250.58564453 192.94865234 250.41796875 193.89355469 C249.43460438 199.14615947 248.1759228 204.09333487 246.3359375 209.11230469 C245.60336928 211.16747643 245.60336928 211.16747643 245.75 214.02246094 C246.90786011 214.40785034 246.90786011 214.40785034 248.08911133 214.80102539 C251.58339168 215.96981916 255.0729211 217.15220824 258.5625 218.33496094 C259.77744141 218.73908203 260.99238281 219.14320313 262.24414062 219.55957031 C263.40751953 219.95595703 264.57089844 220.35234375 265.76953125 220.76074219 C266.84307861 221.12208252 267.91662598 221.48342285 269.02270508 221.85571289 C271.61118788 222.96307654 272.97502996 223.88118448 274.75 226.02246094 C274.09 227.34246094 273.43 228.66246094 272.75 230.02246094 C266.02557257 229.32453849 260.15971506 226.4393825 254.00585938 223.81738281 C252.71711914 223.28274414 252.71711914 223.28274414 251.40234375 222.73730469 C250.62882568 222.40851318 249.85530762 222.07972168 249.05834961 221.7409668 C246.51123987 220.94814353 244.40209575 220.8937981 241.75 221.02246094 C241.53335862 226.6582597 242.09514613 231.2604328 243.91796875 236.62402344 C244.14936554 237.331185 244.38076233 238.03834656 244.61917114 238.76693726 C245.37796948 241.06537817 246.15650171 243.35647698 246.9375 245.64746094 C247.20033783 246.43282227 247.46317566 247.21818359 247.73397827 248.02734375 C252.06634154 260.94865115 257.09045928 273.46745175 262.82299805 285.82958984 C263.3519165 286.9863623 263.88083496 288.14313477 264.42578125 289.33496094 C264.89927002 290.34171875 265.37275879 291.34847656 265.8605957 292.38574219 C266.81100294 295.20330963 267.00787274 296.34961965 265.75 299.02246094 C262.75 301.02246094 262.75 301.02246094 258.75 301.02246094 C250.35466722 284.40646782 243.2625915 267.72802496 236.92041016 250.23583984 C235.87956304 247.37817823 234.81220314 244.53279518 233.73046875 241.69042969 C233.17350403 240.19730348 232.61742102 238.70384789 232.0625 237.20996094 C231.60488281 235.98664063 231.14726562 234.76332031 230.67578125 233.50292969 C229.12811959 227.68450546 228.98627541 222.54991012 231.75 217.02246094 C204.14432281 208.34003021 176.16542919 202.3024532 147.75 197.02246094 C147.42 195.70246094 147.09 194.38246094 146.75 193.02246094 C156.82194007 192.45078219 166.35222493 194.54288035 176.1875 196.45996094 C177.10053894 196.63487061 178.01357788 196.80978027 178.95428467 196.98999023 C197.43164855 200.54108407 215.61104628 205.0416399 233.75 210.02246094 C234.55957742 208.12294441 235.36470251 206.22152993 236.16796875 204.31933594 C236.6168042 203.26069336 237.06563965 202.20205078 237.52807617 201.11132812 C238.98090515 197.43876225 239.93388031 193.88048131 240.75 190.02246094 C239.77337402 189.96695068 238.79674805 189.91144043 237.79052734 189.85424805 C228.97503692 189.3374417 220.19751951 188.62537436 211.40667725 187.77871704 C190.5597058 185.79059222 169.66914671 184.8803585 148.75 184.02246094 C148.75 183.03246094 148.75 182.04246094 148.75 181.02246094 C153.77180621 180.02422875 158.60553556 179.8310953 163.703125 179.78417969 C165.0194265 179.76989677 165.0194265 179.76989677 166.36231995 179.75532532 C169.2415796 179.73067507 172.12064846 179.7182777 175 179.70996094 C175.98277924 179.70601318 176.96555847 179.70206543 177.9781189 179.69799805 C199.39144294 179.65814036 220.49908385 181.53848038 241.75 184.02246094 C243.21939453 179.71923411 244.52443263 175.39948727 245.75 171.02246094 C238.14508826 170.94474831 230.5402829 170.89318674 222.93505859 170.85766602 C220.36177752 170.84281832 217.78852059 170.82253511 215.21533203 170.79614258 C197.92261646 170.62355383 181.12117608 171.53598926 163.96032715 173.66171265 C158.5690036 174.26754211 153.16179952 174.65050253 147.75 175.02246094 C147.75 174.03246094 147.75 173.04246094 147.75 172.02246094 C155.0400495 169.93323943 162.320822 168.51980707 169.8125 167.39746094 C170.6262207 167.27459717 171.43994141 167.1517334 172.27832031 167.02514648 C182.53614231 165.53852046 192.65952708 164.86994947 203.0234375 164.88964844 C204.15020905 164.88869171 205.27698059 164.88773499 206.43789673 164.88674927 C208.79925595 164.88607351 211.16061709 164.88788527 213.52197266 164.89208984 C217.13578426 164.89747701 220.7494733 164.89210884 224.36328125 164.88574219 C226.66666694 164.88640249 228.97005255 164.88768265 231.2734375 164.88964844 C232.35056 164.88762421 233.4276825 164.88559998 234.53744507 164.8835144 C236.04524033 164.88824265 236.04524033 164.88824265 237.58349609 164.89306641 C238.4629892 164.893862 239.3424823 164.89465759 240.24862671 164.89547729 C242.8344374 165.02674745 245.22750986 165.45250595 247.75 166.02246094 C247.73839844 165.31863281 247.72679687 164.61480469 247.71484375 163.88964844 C247.59656342 150.94640109 248.4847124 139.4176698 252.5625 127.08496094 C265.00801586 87.40846783 266.71183737 42.97520168 250.75 4.02246094 C238.97152155 5.56054403 228.52276673 7.90003066 217.75 13.02246094 C217.15155273 13.30186523 216.55310547 13.58126953 215.93652344 13.86914062 C202.00868031 20.48542681 189.58796603 29.7521543 177.875 39.70996094 C177.35679687 40.14961182 176.83859375 40.5892627 176.3046875 41.04223633 C173.69108576 43.28394708 171.15538528 45.57872154 168.671875 47.96386719 C161.49780696 54.69234806 161.49780696 54.69234806 157.08203125 55.52636719 C154.17263761 55.31579069 151.57566406 54.74916566 148.75 54.02246094 C146.84362956 53.64636072 144.93715376 53.27067896 143.02856445 52.90600586 C141.15633098 52.54076573 139.29076012 52.14185087 137.42578125 51.74121094 C116.78130181 47.70445832 94.29990283 49.35182785 73.90234375 54.12402344 C67.75372663 55.50710477 67.75372663 55.50710477 64.75 55.02246094 C62.671875 53.51074219 62.671875 53.51074219 60.5 51.33496094 C49.96142889 41.37663853 38.10944152 32.80103053 25.74902344 25.24707031 C24.28715509 24.35152419 22.83012831 23.44806142 21.37597656 22.54003906 C7.77124389 13.76865428 7.77124389 13.76865428 -7.25 8.02246094 C-8.095625 7.80332031 -8.94125 7.58417969 -9.8125 7.35839844 C-15.37064663 6.08748076 -20.55917813 5.83888604 -26.25 6.02246094 C-36.20020487 23.79911154 -36.6643496 43.82267406 -36.625 63.70996094 C-36.62512085 64.65045288 -36.6252417 65.59094482 -36.62536621 66.55993652 C-36.56534001 100.21513282 -36.56534001 100.21513282 -26.734375 131.97558594 C-24.13479009 137.88892744 -24.12748901 144.60210498 -23.5625 150.95996094 C-23.43269191 152.32529567 -23.30184162 153.69053174 -23.16992188 155.05566406 C-22.85303526 158.37710522 -22.54673949 161.69916944 -22.25 165.02246094 C-21.60758865 165.01801971 -20.96517731 165.01357849 -20.30329895 165.00900269 C-13.50389881 164.96411325 -6.70454195 164.93432828 0.0949707 164.91259766 C2.61907669 164.90265455 5.14317152 164.88909534 7.66723633 164.87158203 C27.11993232 164.74017101 46.32415241 165.11747047 65.4375 169.08496094 C66.32759766 169.25833984 67.21769531 169.43171875 68.13476562 169.61035156 C74.427564 170.86124294 74.427564 170.86124294 76.75 172.02246094 C76.75 173.01246094 76.75 174.00246094 76.75 175.02246094 C72.19154858 175.19778599 68.05118883 174.97178256 63.5625 174.14746094 C44.49956761 170.79532878 25.23843859 170.63092532 5.9375 170.39746094 C3.28709813 170.35916924 0.6367072 170.32011158 -2.01367188 170.28027344 C-8.4256896 170.18552855 -14.83776497 170.10106809 -21.25 170.02246094 C-20.26 174.64246094 -19.27 179.26246094 -18.25 184.02246094 C-15.22898912 183.71160767 -12.20819796 183.3988286 -9.1875 183.08496094 C-8.33994141 182.99794922 -7.49238281 182.9109375 -6.61914062 182.82128906 C-5.78447266 182.73427734 -4.94980469 182.64726562 -4.08984375 182.55761719 C-2.95083618 182.43978882 -2.95083618 182.43978882 -1.78881836 182.31958008 C0.17344708 182.08993521 2.13055371 181.81595404 4.08447266 181.52368164 C17.58874311 179.67712061 31.3273816 179.86313374 44.92895508 179.89208984 C47.971566 179.89752175 51.01403374 179.89207132 54.05664062 179.88574219 C56.01041699 179.88640191 57.96419327 179.88768086 59.91796875 179.88964844 C61.2680024 179.88661209 61.2680024 179.88661209 62.64530945 179.8835144 C67.12793603 179.90022419 71.33789608 180.11303741 75.75 181.02246094 C75.75 182.01246094 75.75 183.00246094 75.75 184.02246094 C75.05161011 184.05338333 74.35322021 184.08430573 73.63366699 184.11616516 C66.93012205 184.41470979 60.22706717 184.72274341 53.52440643 185.04047871 C50.08157651 185.20337421 46.63867116 185.36306162 43.1953125 185.5144043 C28.51105996 186.16206417 13.94502862 186.96382537 -0.61633301 189.04133606 C-5.8962053 189.78991654 -10.91553144 190.16159049 -16.25 190.02246094 C-15.27327683 192.98160672 -14.29320621 195.93963304 -13.3125 198.89746094 C-13.03470703 199.73921875 -12.75691406 200.58097656 -12.47070312 201.44824219 C-12.20322266 202.25390625 -11.93574219 203.05957031 -11.66015625 203.88964844 C-11.29096069 205.00509033 -11.29096069 205.00509033 -10.91430664 206.14306641 C-10.27437575 208.07668407 -10.27437575 208.07668407 -9.25 210.02246094 C-8.28066528 209.75151611 -8.28066528 209.75151611 -7.29174805 209.47509766 C13.70322358 203.63773222 34.80162875 198.53225596 56.25 194.64746094 C57.15065186 194.47964111 58.05130371 194.31182129 58.97924805 194.13891602 C65.27712928 193.04918085 71.36556064 192.84341506 77.75 193.02246094 C77.75 194.34246094 77.75 195.66246094 77.75 197.02246094 C76.82948853 197.17896118 76.82948853 197.17896118 75.89038086 197.33862305 C60.71285435 199.95476937 45.69219433 203.06217807 30.6875 206.52246094 C29.87940887 206.7075119 29.07131775 206.89256287 28.23873901 207.08322144 C18.54175616 209.31000711 8.9251343 211.72367709 -0.63795471 214.47351074 C-6.05446401 216.02246094 -6.05446401 216.02246094 -8.25 216.02246094 C-7.755 216.79589844 -7.755 216.79589844 -7.25 217.58496094 C-4.9796118 223.11903217 -6.4440481 229.08096808 -7.8125 234.70996094 C-8.07703979 235.80473755 -8.07703979 235.80473755 -8.34692383 236.92163086 C-12.26251401 252.45440148 -18.32801353 267.109421 -25.11376953 281.58105469 C-26.2637014 284.05190098 -27.38267854 286.53497128 -28.49609375 289.02246094 C-29.20518685 290.58520713 -29.91479887 292.14771799 -30.625 293.70996094 C-31.10731079 294.79796997 -31.10731079 294.79796997 -31.59936523 295.90795898 C-32.40434466 297.65126581 -33.31872822 299.343222 -34.25 301.02246094 C-35.24 301.35246094 -36.23 301.68246094 -37.25 302.02246094 C-39.9375 300.58496094 -39.9375 300.58496094 -42.25 299.02246094 C-41.74153506 293.03210831 -39.84950265 288.5267158 -37.25 283.14746094 C-31.76789669 271.38996694 -27.44728182 259.28705354 -23.25 247.02246094 C-22.82364258 245.79825439 -22.82364258 245.79825439 -22.38867188 244.54931641 C-19.45244915 236.07364091 -17.43802853 228.04783024 -17.25 219.02246094 C-18.42175781 219.48136719 -19.59351563 219.94027344 -20.80078125 220.41308594 C-24.85548432 221.99852622 -28.91442808 223.57277515 -32.97558594 225.14160156 C-34.91566293 225.8929753 -36.85269023 226.6522156 -38.7890625 227.41308594 C-39.74554688 227.77917969 -40.70203125 228.14527344 -41.6875 228.52246094 C-42.51121094 228.84214844 -43.33492187 229.16183594 -44.18359375 229.49121094 C-46.25 230.02246094 -46.25 230.02246094 -49.25 229.02246094 C-49.58 227.37246094 -49.91 225.72246094 -50.25 224.02246094 C-46.00423582 222.3448576 -41.75274227 220.68228651 -37.5 219.02246094 C-35.69015625 218.30703125 -35.69015625 218.30703125 -33.84375 217.57714844 C-32.68359375 217.12597656 -31.5234375 216.67480469 -30.328125 216.20996094 C-29.25981445 215.79101562 -28.19150391 215.37207031 -27.09082031 214.94042969 C-24.25 214.02246094 -24.25 214.02246094 -20.25 214.02246094 C-20.43175781 213.49813477 -20.61351563 212.97380859 -20.80078125 212.43359375 C-21.62352814 210.04868258 -22.4368411 207.66065735 -23.25 205.27246094 C-23.53617188 204.44746094 -23.82234375 203.62246094 -24.1171875 202.77246094 C-24.38789062 201.97324219 -24.65859375 201.17402344 -24.9375 200.35058594 C-25.18886719 199.61743164 -25.44023438 198.88427734 -25.69921875 198.12890625 C-26.25 196.02246094 -26.25 196.02246094 -26.25 192.02246094 C-26.80461914 192.14363281 -27.35923828 192.26480469 -27.93066406 192.38964844 C-30.45287045 192.93818349 -32.97639872 193.48038113 -35.5 194.02246094 C-36.37269531 194.21324219 -37.24539062 194.40402344 -38.14453125 194.60058594 C-38.98886719 194.78105469 -39.83320312 194.96152344 -40.703125 195.14746094 C-41.47817383 195.31503906 -42.25322266 195.48261719 -43.05175781 195.65527344 C-45.25 196.02246094 -45.25 196.02246094 -49.25 196.02246094 C-49.25 194.04246094 -49.25 192.06246094 -49.25 190.02246094 C-42.07140651 187.98184553 -35.72394574 186.64876365 -28.25 187.02246094 C-29.735 180.09246094 -29.735 180.09246094 -31.25 173.02246094 C-34.55 173.02246094 -37.85 173.02246094 -41.25 173.02246094 C-41.25 171.04246094 -41.25 169.06246094 -41.25 167.02246094 C-38.28 167.02246094 -35.31 167.02246094 -32.25 167.02246094 C-33.93698536 153.91415046 -35.95046933 141.13754277 -39.75 128.45996094 C-50.07625721 93.88085727 -56.93926785 41.51972764 -39.3125 7.89746094 C-29.46496547 -8.59777953 -16.53245034 -7.18271822 0 0 Z " fill="#294468" transform="translate(87.25,17.9775390625)"/>
<path d="M0 0 C1 1 1 1 1.5625 3.875 C1.44939799 9.99507532 -3.12536879 14.65345858 -7 19 C-15.65408805 27 -15.65408805 27 -19 27 C-19.48623373 34.65818125 -18.56135055 40.49467702 -13.703125 46.640625 C-8.1456005 51.62520883 -0.05544106 50.90011602 7 51 C7.1875 53.375 7.1875 53.375 7 56 C2.31962233 59.12025178 -2.51868543 58.45920588 -8 58 C-12.96604753 56.31341782 -17.50257879 52.94062059 -21 49 C-21.69921875 46.80859375 -21.69921875 46.80859375 -22 45 C-22.66 45 -23.32 45 -24 45 C-24.25007813 45.58523437 -24.50015625 46.17046875 -24.7578125 46.7734375 C-26.16476141 49.29532706 -27.68712804 50.75086062 -29.875 52.625 C-30.55304688 53.21539062 -31.23109375 53.80578125 -31.9296875 54.4140625 C-36.00180102 57.53345512 -38.84035025 58.29315131 -44 58.3125 C-45.03125 58.32925781 -46.0625 58.34601563 -47.125 58.36328125 C-50.31011968 57.96081368 -51.65733538 57.13430263 -54 55 C-53.67 53.68 -53.34 52.36 -53 51 C-52.05898437 50.96261719 -51.11796875 50.92523438 -50.1484375 50.88671875 C-48.90320313 50.82097656 -47.65796875 50.75523437 -46.375 50.6875 C-44.53035156 50.60048828 -44.53035156 50.60048828 -42.6484375 50.51171875 C-38.07288314 49.86996541 -34.61816416 48.66428761 -31.35546875 45.30859375 C-28.68175436 41.02528541 -26.60739148 36.74772504 -26.26953125 31.65625 C-27.78769108 26.13566879 -33.12072791 22.70732477 -37.45336914 19.2734375 C-42.57403048 15.05727814 -46.55840708 11.14634959 -47.5 4.4375 C-47 1 -47 1 -44.8125 -1.3125 C-31.91983843 -9.04809694 -12.51575171 -8.20452616 0 0 Z " fill="#264266" transform="translate(223,175)"/>
<path d="M0 0 C0.96591064 0.00281982 1.93182129 0.00563965 2.92700195 0.00854492 C11.48047579 0.2011359 19.18768955 1.66431713 26.20703125 6.91796875 C27.3125 8.5 27.3125 8.5 27 10.6875 C26.773125 11.285625 26.54625 11.88375 26.3125 12.5 C21.47475145 12.10985899 17.26248982 11.56484537 12.6875 9.9375 C3.12998206 6.91541878 -8.58216807 7.07318009 -17.6875 11.5 C-24.82129665 15.81599658 -30.57090641 20.93399594 -35.6875 27.5 C-37.3375 27.17 -38.9875 26.84 -40.6875 26.5 C-40.17497454 19.29813366 -37.67990618 16.66286181 -32.578125 11.8671875 C-28.27665656 8.34463361 -23.76258484 5.74394247 -18.6875 3.5 C-18.11314209 3.23364746 -17.53878418 2.96729492 -16.94702148 2.69287109 C-11.30839521 0.28886653 -6.08477614 -0.03951495 0 0 Z " fill="#284368" transform="translate(263.6875,133.5)"/>
<path d="M0 0 C6.97321429 5.83214286 6.97321429 5.83214286 8.7109375 10.234375 C8.3984375 13.046875 8.3984375 13.046875 7.7109375 15.234375 C5.5234375 15.109375 5.5234375 15.109375 2.7109375 14.234375 C1.4941422 12.82026154 0.28417248 11.39797339 -0.8515625 9.91796875 C-6.82637269 2.92029704 -16.35773029 -2.03698006 -25.2890625 -3.765625 C-34.73447094 -4.43777017 -44.64984441 -4.08523405 -53.2890625 0.234375 C-55.28866262 0.274367 -57.28953492 0.27784299 -59.2890625 0.234375 C-59.2890625 -1.415625 -59.2890625 -3.065625 -59.2890625 -4.765625 C-57.39713775 -5.75232259 -55.50034272 -6.7296852 -53.6015625 -7.703125 C-52.01794922 -8.52103516 -52.01794922 -8.52103516 -50.40234375 -9.35546875 C-33.83384781 -16.86014508 -13.6007244 -10.49066114 0 0 Z " fill="#294468" transform="translate(168.2890625,145.765625)"/>
</svg>
