<?xml version="1.0" encoding="UTF-8"?>
<svg version="1.1" xmlns="http://www.w3.org/2000/svg" width="512" height="512">
<path d="M0 0 C1.15475822 -0.00382555 2.30951644 -0.00765109 3.49926734 -0.01159257 C7.33018666 -0.02182906 11.16095347 -0.01794827 14.99188232 -0.01396179 C17.75436327 -0.01722332 20.516836 -0.02343452 23.27931213 -0.02944946 C29.98157866 -0.04214408 36.68380502 -0.04399669 43.38608155 -0.0416492 C48.83948195 -0.03985981 54.29287026 -0.04162894 59.74626923 -0.04587364 C60.91440559 -0.04676643 60.91440559 -0.04676643 62.10614066 -0.04767724 C63.68865429 -0.04888911 65.27116791 -0.05010325 66.85368153 -0.05131962 C81.66703486 -0.06217522 96.48036538 -0.06004221 111.29371998 -0.05393478 C124.8126443 -0.04876874 138.3314965 -0.06001632 151.85040656 -0.07903299 C165.76700972 -0.09845738 179.68357885 -0.10665926 193.60019565 -0.10290974 C201.39908902 -0.10100449 209.19792105 -0.10341883 216.99680328 -0.11762428 C223.63707174 -0.12959799 230.2772411 -0.13087651 236.91751108 -0.11883412 C240.29795785 -0.11298671 243.6780772 -0.11338872 247.05853462 -0.12383652 C285.54817965 -0.23415349 318.53452069 9.18176576 346.80731201 36.26069641 C347.67356201 37.08569641 348.53981201 37.91069641 349.43231201 38.76069641 C350.21606201 39.58569641 350.99981201 40.41069641 351.80731201 41.26069641 C352.66002686 42.13854797 352.66002686 42.13854797 353.52996826 43.03413391 C367.88686564 58.39002017 377.9122286 77.85232696 382.80731201 98.26069641 C383.17856248 99.72765772 383.17856248 99.72765772 383.55731297 101.22425461 C386.54159419 114.70767212 386.23697753 128.17125734 386.21136475 141.92182922 C386.21543743 144.69959388 386.22394355 147.47734137 386.23216248 150.25509644 C386.2492565 156.98404307 386.25021005 163.71289594 386.24494957 170.44185862 C386.24088843 175.91852659 386.24237435 181.39516711 386.24769783 186.8718338 C386.24844625 187.65486946 386.24919467 188.43790511 386.24996578 189.24466912 C386.25149745 190.83603496 386.2530358 192.42740079 386.25458074 194.01876661 C386.26827219 208.90376885 386.26289213 223.78871837 386.25139553 238.67371938 C386.24147012 252.24864871 386.25439783 265.82344161 386.27832972 279.39834991 C386.30279727 293.38400062 386.31230966 307.369588 386.305677 321.35525966 C386.30220127 329.18831396 386.30430681 337.0212635 386.32192802 344.85430145 C386.33674638 351.5233517 386.33716133 358.19222342 386.31985711 364.86127052 C386.31142223 368.25434009 386.31123129 371.64683448 386.32450867 375.03992653 C386.46476734 413.87613947 376.10634762 447.01906365 348.79949951 475.29975891 C344.43226531 479.68943234 339.78455449 483.57899115 334.80731201 487.26069641 C334.27863525 487.65853333 333.7499585 488.05637024 333.20526123 488.46626282 C311.98153433 504.24706121 285.94649579 512.61576984 259.56993103 512.52139282 C258.41038369 512.52521837 257.25083635 512.52904392 256.05615121 512.53298539 C252.20907859 512.54322249 248.36215781 512.53934099 244.51507568 512.53535461 C241.74112014 512.53861606 238.9671728 512.54482724 236.19322205 512.55084229 C229.46321709 512.56353693 222.73325213 512.56538954 216.00323721 512.56304202 C210.5278984 512.56125278 205.05257164 512.56302143 199.57723427 512.56726646 C198.79541261 512.56786165 198.01359095 512.56845684 197.20807773 512.56907007 C195.61936137 512.57028193 194.03064502 512.57149606 192.44192866 512.57271244 C177.57090161 512.58356786 162.69989728 512.581435 147.82886896 512.5753276 C134.25430373 512.57016048 120.6798103 512.58141203 107.10525926 512.60042582 C93.13329034 512.61984472 79.16135533 512.62805311 65.18937284 512.62430257 C57.35865337 512.62239663 49.52799499 512.62481853 41.69728661 512.63901711 C35.03063926 512.65098371 28.36409061 512.65227708 21.69744178 512.64022694 C18.30294242 512.63437489 14.90876943 512.63479118 11.51425934 512.64522934 C-2.04719677 512.68390472 -14.98901979 512.61935288 -28.19268799 509.26069641 C-28.99811948 509.06344625 -29.80355097 508.86619608 -30.63338947 508.66296864 C-64.06222718 499.85005343 -92.06237132 478.39101913 -109.57843018 448.62104797 C-120.50701657 429.60258683 -126.3436126 409.65957962 -126.33985901 387.6958313 C-126.3435357 386.53606567 -126.34721238 385.37630003 -126.35100049 384.18138999 C-126.36008792 380.97496116 -126.36472835 377.76856241 -126.3673898 374.56212294 C-126.37130951 371.09829207 -126.38088683 367.63447579 -126.38960266 364.1706543 C-126.40932349 355.81003769 -126.41942917 347.44941996 -126.42833045 339.08878592 C-126.43272184 335.14294722 -126.43808655 331.19710985 -126.44331932 327.2512722 C-126.46032966 314.11842153 -126.47482006 300.98557167 -126.48206806 287.85271168 C-126.48397769 284.44809785 -126.48589806 281.04348404 -126.487854 277.63887024 C-126.48857961 276.36970358 -126.48857961 276.36970358 -126.48931988 275.07489719 C-126.49760614 261.39270846 -126.5229201 247.71060754 -126.55543468 234.02845708 C-126.58860931 219.9527027 -126.60652631 205.87699278 -126.6097123 191.80119914 C-126.61186815 183.90986888 -126.62047974 176.01866657 -126.64617348 168.12737465 C-126.66802343 161.40139768 -126.67586158 154.67557973 -126.6662067 147.94957129 C-126.66170236 144.52617196 -126.66556047 141.10336225 -126.68296814 137.67996597 C-126.86967098 98.75661851 -116.55782692 65.57078994 -89.18487549 37.22163391 C-84.81764129 32.83196048 -80.16993047 28.94240167 -75.19268799 25.26069641 C-74.66401123 24.8628595 -74.13533447 24.46502258 -73.59063721 24.05513 C-52.38450611 8.28741489 -26.35705808 -0.0947173 0 0 Z M-21.01690674 109.36616516 C-22.58718699 111.60094688 -23.91600727 113.84697192 -25.19268799 116.26069641 C-25.60518799 117.00964172 -26.01768799 117.75858704 -26.44268799 118.53022766 C-30.36177908 126.73582464 -30.55159097 135.77935217 -28.38018799 144.53804016 C-24.15102904 155.94795857 -16.82648709 163.15647277 -5.89190674 168.20210266 C3.24777602 171.78655132 13.21170448 171.33065369 22.24090576 167.58491516 C32.0920995 162.50187912 39.27425531 154.58280203 43.11590576 144.16694641 C45.54693674 133.94837551 44.47885713 123.83888142 39.40106201 114.74116516 C34.21743073 106.58672634 26.82646352 100.38406834 17.42059326 97.69429016 C2.84243493 95.27549259 -11.02171339 97.82995699 -21.01690674 109.36616516 Z M-28.19268799 204.26069641 C-28.19268799 273.56069641 -28.19268799 342.86069641 -28.19268799 414.26069641 C-4.43268799 414.26069641 19.32731201 414.26069641 43.80731201 414.26069641 C43.80731201 344.96069641 43.80731201 275.66069641 43.80731201 204.26069641 C20.04731201 204.26069641 -3.71268799 204.26069641 -28.19268799 204.26069641 Z M153.80731201 223.26069641 C152.13430227 225.34730099 150.55427986 227.45921779 149.03387451 229.65913391 C147.80731201 231.26069641 147.80731201 231.26069641 145.80731201 232.26069641 C145.80731201 223.02069641 145.80731201 213.78069641 145.80731201 204.26069641 C127.32731201 204.26069641 108.84731201 204.26069641 89.80731201 204.26069641 C89.80731201 273.56069641 89.80731201 342.86069641 89.80731201 414.26069641 C109.60731201 414.26069641 129.40731201 414.26069641 149.80731201 414.26069641 C149.84469482 405.84440735 149.88207764 397.42811829 149.92059326 388.75679016 C149.95475352 382.72006162 149.99075243 376.68336578 150.02938938 370.64666653 C150.07909477 362.84265317 150.12457749 355.03869341 150.15374756 347.23457336 C150.17687086 341.05193789 150.21042552 334.86945756 150.25601357 328.6869455 C150.27975492 325.41958458 150.29705007 322.15240509 150.30492592 318.88496208 C150.40962207 279.41666383 150.40962207 279.41666383 161.62371826 266.10444641 C170.47213232 257.66717079 181.44514699 255.94326466 193.22528076 256.04194641 C200.88444421 256.50968158 206.66431388 258.80702276 212.80731201 263.26069641 C213.46731201 263.26069641 214.12731201 263.26069641 214.80731201 263.26069641 C215.17856201 264.06507141 215.17856201 264.06507141 215.55731201 264.88569641 C216.7732947 267.35970158 216.7732947 267.35970158 218.68231201 269.69819641 C229.4022723 285.73813699 227.13344219 309.9911872 227.22137451 328.32319641 C227.24011984 330.81140257 227.25969566 333.29960259 227.28005981 335.78779602 C227.33103177 342.28458514 227.37084286 348.78139479 227.40820312 355.27827454 C227.4555628 363.10137375 227.51700867 370.92437249 227.5760498 378.74739075 C227.6638352 390.58511853 227.73390489 402.42283146 227.80731201 414.26069641 C247.60731201 414.26069641 267.40731201 414.26069641 287.80731201 414.26069641 C287.86567772 391.08589849 287.86567772 391.08589849 287.90496826 367.91108704 C287.91678867 358.44662788 287.93060681 348.98220459 287.95819092 339.51777649 C287.97827957 332.62177096 287.99106468 325.72579483 287.995489 318.82976085 C287.99807052 315.18667857 288.00403037 311.54368028 288.01877213 307.90062523 C288.52366758 261.20983594 288.52366758 261.20983594 266.86590576 221.22944641 C264.92111657 219.43788303 262.9332007 217.83234968 260.80731201 216.26069641 C259.75350342 215.47759094 259.75350342 215.47759094 258.67840576 214.67866516 C230.43538815 195.80219823 177.56313266 198.30928741 153.80731201 223.26069641 Z " fill="#000000" transform="translate(126.19268798828125,-0.2606964111328125)"/>
</svg>
