<?xml version="1.0" encoding="UTF-8"?>
<svg version="1.1" xmlns="http://www.w3.org/2000/svg" width="1153" height="1054">
<path d="M0 0 C380.49 0 760.98 0 1153 0 C1153 347.82 1153 695.64 1153 1054 C772.51 1054 392.02 1054 0 1054 C0 706.18 0 358.36 0 0 Z " fill="#C8D5E7" transform="translate(0,0)"/>
<path d="M0 0 C0.98323242 0.49032715 1.96646484 0.9806543 2.97949219 1.48583984 C34.13267562 17.10912048 62.33214878 37.8155771 89.35595703 59.67626953 C91.66034885 61.53169164 93.98857459 63.35663833 96.3125 65.1875 C100.62517487 68.62900015 104.71404799 72.28409953 108.7734375 76.01953125 C109.50820313 76.67308594 110.24296875 77.32664062 111 78 C111.88558594 78.90298828 111.88558594 78.90298828 112.7890625 79.82421875 C117.59786512 82.38155018 125.42992494 79.57105704 130.5390625 78.51171875 C190.13349049 66.40907846 250.59176304 64.49546457 309.85253906 79.97021484 C313.88857268 80.97869191 316.96944269 81.0849257 321 80 C323.52140971 77.8979062 323.52140971 77.8979062 326 75 C332.09120083 68.432226 338.90135813 62.99062861 345.98583984 57.55664062 C348.08400018 55.93508059 350.16248607 54.29070066 352.23828125 52.640625 C373.24913732 35.99411777 395.76963929 21.54221477 418.98095703 8.16601562 C420.92868375 7.04118578 422.86873094 5.90394553 424.80859375 4.765625 C448.681241 -9.10710723 474.26643687 -20.02245793 501 -27 C502.20785156 -27.31839844 503.41570313 -27.63679688 504.66015625 -27.96484375 C515.17269736 -30.49111332 526.59885166 -32.23026416 536.703125 -27.42578125 C557.04146665 -14.80079026 564.18032833 15.27166304 569.30029297 36.95849609 C588.6648622 121.1328867 580.95975547 213.5962522 552.42456055 294.82080078 C552.1181665 295.69333496 551.81177246 296.56586914 551.49609375 297.46484375 C551.22982178 298.203396 550.9635498 298.94194824 550.68920898 299.70288086 C548.94993471 305.49984566 548.69486762 311.45387644 548.31640625 317.45703125 C548.19228316 319.31056201 548.06792689 321.16407718 547.94335938 323.01757812 C547.75195465 325.91364673 547.56267162 328.80981282 547.37768555 331.70629883 C547.19675379 334.51948809 547.00712541 337.33199082 546.81640625 340.14453125 C546.76424454 340.99795609 546.71208282 341.85138092 546.65834045 342.73066711 C546.60165695 343.55149277 546.54497345 344.37231842 546.48657227 345.21801758 C546.44073502 345.92606033 546.39489777 346.63410309 546.34767151 347.36360168 C545.83033259 351.2865905 544.85838373 355.13727322 544 359 C550.93 359.66 557.86 360.32 565 361 C565 369 565 369 564 373 C556.41 372.67 548.82 372.34 541 372 C540.38125 375.774375 540.38125 375.774375 539.75 379.625 C538.3891532 387.61230905 536.41634349 395.26034139 534 403 C534.66 403.09796875 535.32 403.1959375 536 403.296875 C538.88161867 403.73211949 541.76117759 404.17936054 544.64013672 404.63183594 C546.35217116 404.89893173 548.06482124 405.16209091 549.77783203 405.42285156 C572.42146462 408.88612513 572.42146462 408.88612513 583 413 C582.34 416.63 581.68 420.26 581 424 C573.04246838 424.46929033 565.50030014 422.70957925 557.75 421.125 C555.05788273 420.58296729 552.36495072 420.04506043 549.671875 419.5078125 C548.38345703 419.25032227 547.09503906 418.99283203 545.76757812 418.72753906 C540.52787436 417.71572483 535.27067077 416.83371525 530 416 C529.92265625 417.02738281 529.8453125 418.05476563 529.765625 419.11328125 C528.93993584 425.67981971 526.74162308 431.90002973 524.75 438.1875 C524.36714844 439.42564453 523.98429688 440.66378906 523.58984375 441.93945312 C521.03398179 450.09855091 518.16768448 458.05992681 515 466 C516.27230469 466.20367187 517.54460938 466.40734375 518.85546875 466.6171875 C527.24303684 468.30030167 535.24875303 471.32138974 543.3125 474.125 C545.01508341 474.71198734 546.71772038 475.29881933 548.42041016 475.88549805 C560.37375531 480.01918073 572.24286667 484.3337996 584 489 C583.342425 493.55833544 582.22049017 496.94519187 580 501 C571.06043168 499.92318836 563.0305352 496.9793821 554.72155762 493.69125366 C552.46674635 492.79934627 550.20735604 491.92010672 547.94628906 491.04418945 C544.9736929 489.89183241 542.00258142 488.7358194 539.03320312 487.57519531 C533.94795549 485.58812779 528.8576044 483.61646914 523.75 481.6875 C523.02619141 481.40430908 522.30238281 481.12111816 521.55664062 480.8293457 C517.56348769 479.32900289 514.26297785 478.71536017 510 479 C504.13278536 490.73442928 511.78314025 508.6600026 515.36340332 519.97943115 C516.04325884 522.13730431 516.71318068 524.29810378 517.38183594 526.45947266 C528.94395307 563.73654693 543.06563022 599.80465757 559.328125 635.27734375 C560.11376831 637.0094812 560.11376831 637.0094812 560.9152832 638.77661133 C561.90491813 640.95349073 562.90797137 643.12433704 563.92651367 645.2878418 C564.3619751 646.24730713 564.79743652 647.20677246 565.24609375 648.1953125 C565.63466553 649.03078613 566.0232373 649.86625977 566.42358398 650.72705078 C567 653 567 653 566.46118164 655.09716797 C564.46881466 657.69173911 562.27549545 658.76602558 559.375 660.25 C558.37210938 660.77078125 557.36921875 661.2915625 556.3359375 661.828125 C555.56507813 662.21484375 554.79421875 662.6015625 554 663 C554.9093782 663.00546844 554.9093782 663.00546844 555.83712769 663.01104736 C562.29704669 663.05370898 568.75630891 663.12359606 575.21582031 663.20751953 C577.60865626 663.23529865 580.00157664 663.2567207 582.39453125 663.27099609 C611.3376657 663.4537179 641.98848854 666.2332692 668 680 C669.0725 680.53367187 670.145 681.06734375 671.25 681.6171875 C699.00297465 695.82095047 720.02566913 720.81950681 729.91015625 750.33984375 C735.07837588 767.69691109 737.35220026 784.78682911 737.26074219 802.86035156 C737.25004066 805.36548214 737.26069634 807.86989122 737.2734375 810.375 C737.30490016 844.57596368 728.66575049 878.54953696 706 905 C705.32324219 905.82242188 704.64648438 906.64484375 703.94921875 907.4921875 C690.9405318 922.7601528 673.38024548 932.58479367 655 940 C654.0203125 940.4021875 653.040625 940.804375 652.03125 941.21875 C644.85898757 944.00327542 637.53455375 945.52358052 630 947 C628.77925781 947.2578125 627.55851563 947.515625 626.30078125 947.78125 C583.90614798 956.64115246 544.29623856 952 499 952 C499 856.96 499 761.92 499 664 C524.245 663.505 524.245 663.505 550 663 C547.69 659.37 545.38 655.74 543 652 C541.50006219 649.07405709 540.07749046 646.19319841 538.73046875 643.203125 C538.18160759 642.00982574 538.18160759 642.00982574 537.62165833 640.79241943 C536.46941227 638.28164412 535.3285003 635.765902 534.1875 633.25 C533.4375339 631.61557095 532.68688547 629.98145482 531.93554688 628.34765625 C529.595537 623.24429606 527.29204153 618.12505781 525 613 C524.59249512 612.09172455 524.18499023 611.1834491 523.76513672 610.24765015 C517.30488426 595.80018503 511.52283712 581.18708686 506.125 566.3125 C505.7424707 565.26547913 505.35994141 564.21845825 504.96582031 563.13970947 C478.89664609 491.77804932 478.89664609 491.77804932 488.1953125 471.6875 C488.46085938 471.130625 488.72640625 470.57375 489 470 C487.59041016 469.72349609 487.59041016 469.72349609 486.15234375 469.44140625 C475.890649 467.33351641 465.85630401 464.58622647 455.8125 461.625 C436.45119904 455.9291353 417.01460346 450.9074509 397.31274414 446.53466797 C390.95330912 445.12280771 384.60995327 443.67622627 378.29199219 442.08837891 C363.77873723 438.46157007 349.0298629 435.99389923 334.31620789 433.33595276 C325.90616644 431.81154101 317.51422005 430.19711393 309.125 428.5625 C308.44898743 428.43094513 307.77297485 428.29939026 307.07647705 428.16384888 C303.38383879 427.44500606 299.69167233 426.7237864 296 426 C296 423.36 296 420.72 296 418 C336.33652925 416.69882164 379.05270315 428.9108055 418.06933594 438.08007812 C421.46195503 438.87658654 424.85899364 439.65220483 428.2578125 440.421875 C444.16310949 444.07325952 459.8438189 448.50780937 475.54296875 452.95019531 C476.45927063 453.20905014 477.37557251 453.46790497 478.31964111 453.73460388 C480.05222905 454.22463867 481.78431459 454.71645449 483.51580811 455.21034241 C487.32573787 456.28887244 491.09606887 457.3084943 495 458 C495.06316406 456.989375 495.12632812 455.97875 495.19140625 454.9375 C496.0548805 448.04184625 498.67269354 441.53592314 500.9375 435 C504.89893616 423.6274606 504.89893616 423.6274606 508 412 C507.35490479 411.93006836 506.70980957 411.86013672 506.04516602 411.78808594 C502.88404766 411.44413149 499.72326047 411.09722798 496.5625 410.75 C494.72800293 410.5497522 494.72800293 410.5497522 492.85644531 410.34545898 C486.49289847 409.64219147 480.13898933 408.90090363 473.79296875 408.05078125 C416.18968037 400.40263919 358.00713323 399.59630307 300 398 C300 395.69 300 393.38 300 391 C317.14153712 387.12158479 336.18285963 388.84454431 353.69140625 388.86962891 C357.67338565 388.87528685 361.6552977 388.87195485 365.63727474 388.86620331 C391.98481384 388.83361846 418.17067662 389.54836081 444.4375 391.75 C445.97638382 391.87622742 445.97638382 391.87622742 447.5463562 392.00500488 C469.42635658 393.80826579 491.21677715 396.28192089 513 399 C513.04898438 398.31035156 513.09796875 397.62070312 513.1484375 396.91015625 C513.6365091 390.77560117 514.49566439 384.96283753 516 379 C516.17789063 378.26394531 516.35578125 377.52789062 516.5390625 376.76953125 C517.26286309 373.80410943 518.03436966 370.89689103 519 368 C517.25589844 368.01740234 517.25589844 368.01740234 515.4765625 368.03515625 C513.85937665 368.04455849 512.242189 368.053656 510.625 368.0625 C509.86960937 368.07087891 509.11421875 368.07925781 508.3359375 368.08789062 C503.70935532 368.1065462 499.12640718 367.95705776 494.50987244 367.64387512 C480.85341235 366.74024817 467.17902244 366.84831927 453.49975586 366.86962891 C449.82949017 366.87527826 446.15929774 366.8719632 442.48903465 366.86619663 C418.54301381 366.83415064 394.61377712 367.14666107 370.75 369.3125 C370.03305969 369.3755835 369.31611938 369.43866699 368.57745361 369.50366211 C348.40580059 371.28612215 328.1831757 373.52707941 308.3125 377.484375 C304.82506837 378.02722992 301.52374262 378.08989139 298 378 C297.67 375.69 297.34 373.38 297 371 C309.15409845 367.04404805 321.53258932 364.98279092 334.125 362.9375 C335.19102448 362.76224792 336.25704895 362.58699585 337.3553772 362.40643311 C353.87279676 359.69748153 370.31834344 357.42154046 387 356 C388.54534172 355.86470131 388.54534172 355.86470131 390.12190247 355.72666931 C410.05896814 354.02309808 429.88013958 353.68459794 449.87719727 353.73925781 C454.11128889 353.75071623 458.34513075 353.74383552 462.5792141 353.73236847 C482.54815879 353.68658101 502.2067249 354.06815098 522 357 C521.97035156 355.783125 521.94070313 354.56625 521.91015625 353.3125 C521.91135964 347.15115839 522.69530228 341.10852777 523.4375 335 C524.34306667 327.29125985 525.17207401 319.63063602 525.5 311.875 C526.30451624 296.35640318 530.24320816 282.74469108 535.23291016 268.15087891 C538.63718982 258.18969288 541.68559645 248.27055496 544 238 C544.19899902 237.11763672 544.39799805 236.23527344 544.60302734 235.32617188 C547.49220502 222.24055779 549.70799109 209.0610863 551.6875 195.8125 C551.7901416 195.13581268 551.8927832 194.45912537 551.99853516 193.76193237 C555.20221075 172.47515131 556.38150416 151.3969166 556.3125 129.875 C556.31034485 128.66255615 556.3081897 127.4501123 556.30596924 126.20092773 C556.22466127 97.68767862 552.82449561 70.8532958 547 43 C546.64349684 41.22546792 546.28789566 39.45075415 545.93359375 37.67578125 C543.12978878 23.96556455 539.49076703 10.22095335 532.19921875 -1.8359375 C531.03949207 -3.92873417 530.52743172 -5.68608646 530 -8 C459.23063368 -5.34265225 401.80445889 39.68579545 349.84887695 83.90527344 C346.31574769 86.90703776 342.73581256 89.84156468 339.125 92.75 C335.95380157 95.3182565 333.00688654 97.92605741 330.1875 100.875 C327.37791603 103.75147882 324.8749924 105.68085365 321 107 C316.79026745 106.47881612 312.70384321 105.49965618 308.58203125 104.51171875 C291.49173101 100.48668859 274.46042366 97.06734038 257 95 C256.28035568 94.91330048 255.56071136 94.82660095 254.81925964 94.73727417 C248.35286069 94.01613411 241.96757259 93.8541628 235.46484375 93.8671875 C234.38731339 93.86623077 233.30978302 93.86527405 232.19960022 93.86428833 C229.92969708 93.86361147 227.65979194 93.86543107 225.38989258 93.86962891 C221.97147098 93.87494715 218.55318299 93.86968601 215.13476562 93.86328125 C197.57114141 93.85552971 180.53406375 94.45316464 163.1875 97.3125 C161.79153463 97.53713763 160.3955381 97.76158166 158.99951172 97.98583984 C138.79177792 101.00137265 138.79177792 101.00137265 119.16796875 106.484375 C115.84234587 107.27533395 113.42061046 107.44902357 110 107 C107.38050341 105.18983701 105.36663717 102.92666537 103.25 100.5625 C102.02346666 99.26449911 100.79296701 97.97023505 99.55859375 96.6796875 C98.95644043 96.04643555 98.35428711 95.41318359 97.73388672 94.76074219 C93.8195162 90.78574357 89.37919876 87.43940051 85 84 C83.28967248 82.58574154 81.58139434 81.16900161 79.875 79.75 C56.05613499 60.2894805 30.89016796 42.91357661 4.27734375 27.5 C1.1832341 25.70421439 -1.88048508 23.86463835 -4.93359375 22 C-15.0682196 15.81506117 -25.21099098 9.97060911 -36 5 C-37.00160156 4.53078125 -38.00320313 4.0615625 -39.03515625 3.578125 C-54.44713966 -3.00090349 -72.37180682 -5.61603858 -89 -7 C-89.86238281 -7.13792969 -90.72476563 -7.27585937 -91.61328125 -7.41796875 C-94.7580299 -6.86725172 -95.94429707 -5.286335 -97.8125 -2.79199219 C-99.77043382 0.16262012 -101.42853315 3.20012591 -103 6.375 C-103.31710937 6.97699219 -103.63421875 7.57898437 -103.9609375 8.19921875 C-109.86322642 19.98018743 -112.68593512 32.94701702 -114.83081055 45.85449219 C-115.18774103 48.00144983 -115.56025678 50.1452453 -115.93554688 52.2890625 C-119.2609433 71.52429015 -121.12590051 90.61754147 -121.23828125 110.16015625 C-121.2456408 111.20498987 -121.2456408 111.20498987 -121.25314903 112.27093124 C-121.7328697 155.58878278 -121.7328697 155.58878278 -117.38336182 198.61956787 C-116.95730932 201.26508187 -116.54748653 203.91287952 -116.13818359 206.56103516 C-111.48888046 236.38722591 -106.64468687 266.71062627 -93 294 C-92.81190752 295.80969992 -92.67793209 297.62514343 -92.5703125 299.44140625 C-92.4986084 300.5708667 -92.4269043 301.70032715 -92.35302734 302.86401367 C-92.27777832 304.08451416 -92.2025293 305.30501465 -92.125 306.5625 C-91.41940868 317.34329526 -90.40311168 328.03058004 -88.96533203 338.73852539 C-88.84013184 339.6949292 -88.71493164 340.65133301 -88.5859375 341.63671875 C-88.4729834 342.45873779 -88.3600293 343.28075684 -88.24365234 344.12768555 C-87.90773013 348.08773048 -87.95404225 352.02833121 -88 356 C-86.70690918 355.85925049 -85.41381836 355.71850098 -84.08154297 355.57348633 C-65.62481521 353.72391243 -47.22914847 353.64212449 -28.70137024 353.68214417 C-26.09465388 353.68756308 -23.48794656 353.68994565 -20.88122559 353.6920166 C4.09770588 353.72294748 28.94521442 354.11003044 53.80609131 356.76568604 C56.06363813 357.00679668 58.32198347 357.23902697 60.58056641 357.47021484 C121.50590841 363.77584361 121.50590841 363.77584361 138 371 C137.34 373.31 136.68 375.62 136 378 C129.47904586 378.23754357 123.57225858 377.33768675 117.1875 376.0625 C110.58842491 374.75561529 104.10407255 373.74865934 97.39575195 373.20825195 C94.72671388 372.97624447 92.13069747 372.56616202 89.5 372.0625 C62.27512219 367.37454272 34.34859894 366.68864752 6.796875 366.8046875 C4.12404041 366.80843187 1.45121668 366.8113709 -1.22161865 366.81326294 C-7.45038993 366.81938293 -13.67908768 366.83565945 -19.90782714 366.85596192 C-27.02078529 366.87862364 -34.1337477 366.88938895 -41.24673319 366.89935279 C-55.8311927 366.92003891 -70.41559532 366.95502176 -85 367 C-84.81824219 367.86278564 -84.63648438 368.72557129 -84.44921875 369.61450195 C-83.77592268 372.81762168 -83.10531589 376.02127999 -82.43652344 379.2253418 C-82.146584 380.61163502 -81.85557621 381.99770526 -81.56347656 383.38354492 C-81.14366701 385.37621237 -80.72771325 387.36965167 -80.3125 389.36328125 C-80.06113281 390.56251221 -79.80976563 391.76174316 -79.55078125 392.99731445 C-79 396 -79 396 -79 399 C-78.3563298 398.9189653 -77.71265961 398.8379306 -77.04948425 398.75444031 C-58.0477708 396.3688473 -39.03381623 394.11320219 -20 392 C-19.01741211 391.89006714 -18.03482422 391.78013428 -17.02246094 391.66687012 C9.96795327 388.68574656 37.04007928 388.72627949 64.16192245 388.69126511 C66.08091212 388.68877415 67.99990099 388.68554329 69.91888809 388.68153763 C91.69748191 388.63740576 113.31458868 388.74938954 135 391 C135 393.64 135 396.28 135 399 C134.07245911 399.00808685 133.14491821 399.01617371 132.18927002 399.02450562 C123.30933844 399.10349409 114.42953757 399.1910657 105.54977798 399.28752708 C100.98812952 399.33679798 96.42649692 399.38311306 91.86474609 399.421875 C71.426663 399.59781363 51.14765171 400.04633484 30.77087402 401.77404785 C26.93359583 402.0869604 23.09411193 402.31791721 19.25 402.52734375 C-2.41393948 403.74908666 -23.91185689 405.70416314 -45.36669922 409.00878906 C-55.19096593 410.44346844 -65.08549934 410.74018755 -75 411 C-71.53985046 422.35033902 -67.82735832 433.54262601 -63.54101562 444.61181641 C-63.21037109 445.4888623 -62.87972656 446.3659082 -62.5390625 447.26953125 C-62.24209473 448.03885986 -61.94512695 448.80818848 -61.63916016 449.60083008 C-60.87563581 452.46681701 -60.89497184 455.0472158 -61 458 C-59.89434692 457.69147095 -59.89434692 457.69147095 -58.76635742 457.37670898 C-43.09629014 453.01106963 -27.40787028 448.7487736 -11.6484375 444.71484375 C-7.26952973 443.59291663 -2.90138206 442.43864405 1.4609375 441.25390625 C17.915233 436.81887265 34.47274433 433.36846428 51.19497681 430.13822937 C55.58591474 429.28683911 59.95686393 428.37333099 64.32128906 427.39648438 C77.72302574 424.40132687 91.33435419 422.42534052 104.890625 420.26953125 C105.60346649 420.15616425 106.31630798 420.04279724 107.05075073 419.92599487 C120.07861632 417.86918698 120.07861632 417.86918698 124.62109375 417.90234375 C125.41064453 417.90556641 126.20019531 417.90878906 127.01367188 417.91210938 C127.81353516 417.92048828 128.61339844 417.92886719 129.4375 417.9375 C130.67790039 417.94426758 130.67790039 417.94426758 131.94335938 417.95117188 C133.96227146 417.96284189 135.98114574 417.98077282 138 418 C138.33 420.64 138.66 423.28 139 426 C137.83057861 426.20044922 136.66115723 426.40089844 135.45629883 426.60742188 C109.91259125 431.00092184 84.51594323 435.76633187 59.23693848 441.49353027 C56.96276747 442.00842989 54.6880001 442.52062107 52.41308594 443.03222656 C37.671694 446.35053716 22.94760586 449.74246199 8.25 453.25 C7.31768555 453.47187988 6.38537109 453.69375977 5.42480469 453.92236328 C-9.41133459 457.49698385 -24.06513098 461.70212639 -38.71948242 465.94726562 C-41.03760032 466.61815677 -43.35662291 467.28584097 -45.67578125 467.953125 C-46.73808708 468.26240936 -46.73808708 468.26240936 -47.82185364 468.57794189 C-52.77340368 470 -52.77340368 470 -55 470 C-54.71125 470.58265625 -54.4225 471.1653125 -54.125 471.765625 C-47.97443693 485.34811845 -51.89978669 499.05146592 -55 513 C-55.19303711 513.87495117 -55.38607422 514.74990234 -55.58496094 515.65136719 C-67.37779856 567.64441976 -92.19153463 616.67381035 -116 664 C-127.23419803 660.57435148 -127.23419803 660.57435148 -132 657 C-133.71481123 652.12289431 -132.99933861 649.41740607 -130.81640625 644.78125 C-129.74440384 642.68100385 -128.65866664 640.58773603 -127.5625 638.5 C-126.34577651 636.07579608 -125.13663095 633.64956145 -123.94140625 631.21484375 C-123.46340073 630.24193642 -123.46340073 630.24193642 -122.97573853 629.24937439 C-106.52834273 595.39800639 -94.01294149 559.01808596 -82.95800781 523.09228516 C-82.03397934 520.10967948 -81.07761736 517.13901341 -80.1171875 514.16796875 C-76.39672834 502.35673852 -72.93528816 489.93607441 -78 478 C-97.24098615 484.19776975 -116.29166249 490.61737618 -134.98095703 498.34082031 C-136.14481934 498.82131836 -137.30868164 499.30181641 -138.5078125 499.796875 C-139.52504395 500.22323242 -140.54227539 500.64958984 -141.59033203 501.08886719 C-144 502 -144 502 -146 502 C-146.67595315 500.58774074 -147.34040059 499.16997095 -148 497.75 C-148.37125 496.96109375 -148.7425 496.1721875 -149.125 495.359375 C-150 493 -150 493 -150 489 C-143.72572515 486.52253625 -137.44900174 484.05135311 -131.1706543 481.58422852 C-129.04152417 480.74675673 -126.91292875 479.90792408 -124.78491211 479.06762695 C-89.48955194 465.13371919 -89.48955194 465.13371919 -81 466 C-81.40089844 465.02546875 -81.80179687 464.0509375 -82.21484375 463.046875 C-86.18947008 453.19985984 -89.6684975 443.2281246 -92.9375 433.125 C-93.3389624 431.89491211 -93.7404248 430.66482422 -94.15405273 429.39746094 C-94.52473877 428.23762695 -94.8954248 427.07779297 -95.27734375 425.8828125 C-95.60984131 424.84527832 -95.94233887 423.80774414 -96.28491211 422.73876953 C-97 420 -97 420 -97 416 C-98.26593994 416.24234375 -99.53187988 416.4846875 -100.83618164 416.734375 C-105.55192699 417.63536928 -110.26923936 418.52791377 -114.98706055 419.41796875 C-117.0252556 419.80370004 -119.06302382 420.19169403 -121.1003418 420.58203125 C-124.03584125 421.1440414 -126.97280052 421.69778458 -129.91015625 422.25 C-131.26682152 422.51248535 -131.26682152 422.51248535 -132.65089417 422.78027344 C-137.52610424 423.68784665 -142.04116058 424.18902068 -147 424 C-148.59138085 419.82262526 -149.21278058 416.46839215 -149 412 C-141.06583058 409.71336124 -133.1040221 407.88669678 -125 406.3125 C-123.90171875 406.08755859 -122.8034375 405.86261719 -121.671875 405.63085938 C-114.69259639 404.27056159 -108.10666807 403.70359213 -101 404 C-101.18175781 403.21351074 -101.36351562 402.42702148 -101.55078125 401.61669922 C-102.3739169 398.03764208 -103.18704795 394.45638335 -104 390.875 C-104.42925781 389.01875 -104.42925781 389.01875 -104.8671875 387.125 C-105.13789063 385.92617188 -105.40859375 384.72734375 -105.6875 383.4921875 C-105.93886719 382.39245605 -106.19023437 381.29272461 -106.44921875 380.15966797 C-106.99366712 377.03632985 -107.10001706 374.16303939 -107 371 C-107.98097656 371.16371094 -108.96195313 371.32742188 -109.97265625 371.49609375 C-114.14118966 372.09159852 -118.23401136 372.11249575 -122.4375 372.0625 C-123.53481445 372.05573242 -123.53481445 372.05573242 -124.65429688 372.04882812 C-126.43623419 372.03718148 -128.21812863 372.01925191 -130 372 C-131.04702186 368.2735915 -131.07442057 364.86986958 -131 361 C-129.00133314 360.65876419 -127.00097458 360.3274322 -125 360 C-123.88625 359.814375 -122.7725 359.62875 -121.625 359.4375 C-117.68605195 358.96210972 -113.96323603 358.93046954 -110 359 C-110.11069824 358.32759277 -110.22139648 357.65518555 -110.33544922 356.96240234 C-112.26019081 345.16359621 -114.09083136 333.42533351 -115 321.5 C-115.77332619 311.73236291 -117.5661602 302.47892453 -120 293 C-120.44666016 291.19789063 -120.44666016 291.19789063 -120.90234375 289.359375 C-123.10863436 280.76146996 -125.69845186 272.28737431 -128.36254883 263.8215332 C-132.86210791 249.34262694 -135.86078625 234.90912736 -138.125 219.9375 C-138.37826758 218.30654132 -138.63217229 216.67568145 -138.88671875 215.04492188 C-139.50243018 211.08016185 -140.09813908 207.11278104 -140.68225098 203.14324951 C-140.96494958 201.23641863 -141.25856056 199.33121277 -141.55371094 197.42626953 C-144.84091791 174.97009634 -145.34587339 152.34423287 -145.25 129.6875 C-145.24723053 128.39905182 -145.24446106 127.11060364 -145.24160767 125.78311157 C-145.19461547 107.12431712 -144.98328713 88.56965088 -143 70 C-142.90348145 69.0423877 -142.80696289 68.08477539 -142.70751953 67.09814453 C-139.45500677 35.98831391 -132.09952155 1.56837193 -110 -22 C-78.50478353 -46.62015447 -29.42278097 -14.74408473 0 0 Z " fill="#233F64" transform="translate(363,31)"/>
<path d="M0 0 C24.75 0 49.5 0 75 0 C77.784375 7.92 80.56875 15.84 83.4375 24 C89.77094477 42.00737666 96.12020398 60.00898663 102.5 78 C108.93097131 96.13560019 115.32680108 114.28335731 121.70800781 132.43652344 C127.62662707 149.27223959 133.57019267 166.09891147 139.53494263 182.91833496 C146.1786172 201.65414332 152.77825085 220.40531114 159.36450195 239.16137695 C162.68980181 248.62655747 166.01687346 258.09048724 169.421875 267.52734375 C169.66792984 268.21025482 169.91398468 268.89316589 170.16749573 269.59677124 C171.24216045 272.57713953 172.32223013 275.55534146 173.41186523 278.53027344 C173.76450439 279.50383789 174.11714355 280.47740234 174.48046875 281.48046875 C174.77848389 282.29410889 175.07649902 283.10774902 175.38354492 283.94604492 C176 286 176 286 176 289 C154.55 289 133.1 289 111 289 C109.10054286 283.93478095 107.32906165 279.02363059 105.75 273.875 C104.30290614 269.17770076 102.8407365 264.48652889 101.33203125 259.80859375 C98.2756737 250.32580874 95.30970092 240.827542 92.5625 231.25 C92.303479 230.35063721 92.04445801 229.45127441 91.77758789 228.5246582 C91.42555298 227.28268677 91.42555298 227.28268677 91.06640625 226.015625 C90.85959229 225.28633789 90.65277832 224.55705078 90.43969727 223.80566406 C90 222 90 222 90 220 C55.35 220 20.7 220 -15 220 C-15.33 221.65 -15.66 223.3 -16 225 C-16.4510299 226.61167797 -16.92474762 228.21713555 -17.41796875 229.81640625 C-17.69970947 230.73502441 -17.9814502 231.65364258 -18.27172852 232.60009766 C-18.57393311 233.57769043 -18.8761377 234.5552832 -19.1875 235.5625 C-19.82581121 237.64444224 -20.46382695 239.7264751 -21.1015625 241.80859375 C-21.58157715 243.37262939 -21.58157715 243.37262939 -22.07128906 244.96826172 C-25.54887974 256.32071205 -28.93295227 267.69763843 -32.18359375 279.1171875 C-32.45651245 280.07423584 -32.72943115 281.03128418 -33.01062012 282.01733398 C-33.67424557 284.34474766 -34.33736497 286.67230419 -35 289 C-52.28075179 289.39796245 -69.56006521 289.69729479 -86.84435749 289.88080692 C-94.87086376 289.96830047 -102.8945161 290.08745365 -110.91918945 290.2824707 C-117.91768292 290.45246757 -124.91410986 290.56171086 -131.91461056 290.59950441 C-135.61925016 290.62158833 -139.31798139 290.67303752 -143.02071571 290.79741096 C-165.48441112 291.52313962 -165.48441112 291.52313962 -171.28797722 287.35791779 C-174.95238688 283.4345173 -177.17400623 279.06908978 -179.12312317 274.10612679 C-180.44870609 270.9222752 -182.26459104 268.20262908 -184.15234375 265.3203125 C-185.41580233 263.25627233 -186.67751718 261.19116377 -187.9375 259.125 C-192.57618362 251.55154959 -197.23642017 243.99557273 -202 236.5 C-206.73735791 229.04291213 -211.37946475 221.52998266 -216 214 C-226.78133724 196.36150498 -226.78133724 196.36150498 -238 179 C-248.56 178.67 -259.12 178.34 -270 178 C-270 214.63 -270 251.26 -270 289 C-290.13 289 -310.26 289 -331 289 C-331 193.96 -331 98.92 -331 1 C-216.7519262 1 -216.7519262 1 -200.25 5.25 C-199.38640869 5.46543457 -198.52281738 5.68086914 -197.63305664 5.90283203 C-177.07029878 11.21388128 -157.17508841 20.16189854 -145.0625 38.4375 C-144.00531278 40.27118206 -142.98463138 42.12635762 -142 44 C-141.45730469 45.00675781 -140.91460937 46.01351562 -140.35546875 47.05078125 C-133.91032054 59.89403279 -132.74159734 72.03943041 -132.625 86.1875 C-132.61098145 87.36320557 -132.59696289 88.53891113 -132.58251953 89.75024414 C-132.69915123 111.06543558 -141.6898221 129.65103728 -156.56201172 144.59228516 C-164.78240558 152.63961809 -173.7886826 157.94257289 -184 163 C-183.36427678 167.00711088 -181.34991084 169.76719 -179.109375 173.09765625 C-178.7014975 173.70730225 -178.29362 174.31694824 -177.87338257 174.94506836 C-176.50445495 176.98798697 -175.12725212 179.025186 -173.75 181.0625 C-172.77409991 182.51522336 -171.79868853 183.96827511 -170.82373047 185.42163086 C-168.13663528 189.42342521 -165.44176352 193.41992356 -162.74475098 197.41503906 C-160.95345817 200.06895471 -159.16354818 202.72379812 -157.37402344 205.37890625 C-152.37070753 212.80206605 -147.36676846 220.22479856 -142.35620117 227.64306641 C-135.88975694 237.21826004 -129.44774734 246.8079658 -123.0625 256.4375 C-116.22060757 266.75146568 -109.15290005 276.89982214 -102 287 C-99.08230889 279.88858853 -96.42995957 272.71145131 -93.90234375 265.453125 C-93.51598755 264.34961197 -93.12963135 263.24609894 -92.73156738 262.10914612 C-91.89957284 259.73200851 -91.06857928 257.35452037 -90.23849487 254.97671509 C-88.91169694 251.17608684 -87.58240561 247.37633977 -86.25219727 243.5769043 C-85.79557286 242.27256955 -85.33895362 240.96823299 -84.88233948 239.66389465 C-84.65477022 239.01383768 -84.42720097 238.36378071 -84.19273567 237.69402504 C-83.49662772 235.70520896 -82.80081413 233.71629012 -82.10508728 231.7273407 C-77.56536275 218.75004537 -73.00326587 205.78065436 -68.4375 192.8125 C-67.65019699 190.57561308 -66.86292496 188.33871526 -66.07568359 186.10180664 C-63.3251282 178.28644646 -60.57400155 170.47128741 -57.82287598 162.65612793 C-55.06910475 154.83336194 -52.31566523 147.01047928 -49.5625 139.1875 C-49.17281036 138.08030609 -48.78312073 136.97311218 -48.38162231 135.83236694 C-43.04834187 120.6784268 -37.72626875 105.52059166 -32.41162109 90.36010742 C-25.47766889 70.58108282 -18.53810572 50.80400719 -11.55596924 31.04193115 C-10.81864221 28.95419922 -10.08209237 26.86619262 -9.34637451 24.77789307 C-8.33608126 21.91100565 -7.32276764 19.04520403 -6.30859375 16.1796875 C-6.01578018 15.34701355 -5.72296661 14.5143396 -5.42127991 13.65643311 C-5.14489182 12.8776178 -4.86850372 12.09880249 -4.58374023 11.29638672 C-4.34872299 10.63113983 -4.11370575 9.96589294 -3.87156677 9.28048706 C-2.67494163 6.14947261 -1.32037396 3.08087258 0 0 Z " fill="#213D62" transform="translate(388,694)"/>
<path d="M0 0 C138.62653563 0 138.62653563 0 168 15 C169.61841797 15.80244141 169.61841797 15.80244141 171.26953125 16.62109375 C199.0073299 30.86838535 220.02058132 55.80431188 229.91015625 85.33984375 C235.07837588 102.69691109 237.35220026 119.78682911 237.26074219 137.86035156 C237.25004066 140.36548214 237.26069634 142.86989122 237.2734375 145.375 C237.30490016 179.57596368 228.66575049 213.54953696 206 240 C205.32324219 240.82242188 204.64648438 241.64484375 203.94921875 242.4921875 C190.9405318 257.7601528 173.38024548 267.58479367 155 275 C154.0203125 275.4021875 153.040625 275.804375 152.03125 276.21875 C144.85868541 279.00339272 137.53438617 280.52188606 130 282 C128.73285156 282.26941406 127.46570313 282.53882813 126.16015625 282.81640625 C124.25556641 283.21666016 124.25556641 283.21666016 122.3125 283.625 C121.17425781 283.86476563 120.03601563 284.10453125 118.86328125 284.3515625 C79.78501811 290.91070475 39.62490375 286 0 286 C0 191.62 0 97.24 0 0 Z " fill="#213D62" transform="translate(863,696)"/>
<path d="M0 0 C203.61 0 407.22 0 617 0 C617 0.33 617 0.66 617 1 C616.20722656 1.00257813 615.41445313 1.00515625 614.59765625 1.0078125 C574.04473339 2.35210829 531.46626264 23.3511159 497.91552734 44.80224609 C495.54374995 46.28528712 493.14227036 47.71429919 490.73828125 49.14453125 C479.11334655 56.07880528 467.91292918 63.31577693 457.08349609 71.43847656 C455.02882908 72.97839339 452.96324222 74.50245747 450.89453125 76.0234375 C439.07264817 84.75315794 427.50375756 93.86107018 416.53515625 103.6484375 C415.14470149 104.87260377 413.69980885 106.03424296 412.25 107.1875 C409.91417967 108.91923021 409.91417967 108.91923021 408.25 111.3125 C406 113 406 113 402.3125 113 C398.10605335 112.32696854 394.00790392 111.27378534 389.875 110.25 C376.42825112 106.94103297 362.6961784 104.96792652 349 103 C348.05092773 102.86287598 347.10185547 102.72575195 346.12402344 102.58447266 C302.03198764 96.57038005 256.92464115 102.345438 213.70166016 111.30737305 C202.64134779 113.37689594 202.64134779 113.37689594 199.59375 111.5859375 C198.9028125 110.85632813 198.211875 110.12671875 197.5 109.375 C196.65953125 108.54484375 195.8190625 107.7146875 194.953125 106.859375 C194.48970703 106.39982422 194.02628906 105.94027344 193.54882812 105.46679688 C190.60025741 102.67439258 187.41447241 100.16643516 184.25 97.625 C183.56010986 97.06852783 182.87021973 96.51205566 182.15942383 95.9387207 C180.10941694 94.28852852 178.05532885 92.64355661 176 91 C175.41202637 90.52804199 174.82405273 90.05608398 174.21826172 89.56982422 C127.72146894 52.310627 61.78834608 3.72195357 0 1 C0 0.67 0 0.34 0 0 Z " fill="#C8D5E7" transform="translate(276,0)"/>
<path d="M0 0 C20.13 0 40.26 0 61 0 C68.56148644 22.23966599 75.67126664 44.60123557 82.64785767 67.02932739 C83.95072228 71.21769073 85.25423452 75.40585187 86.55859375 79.59375 C86.77793642 80.29802061 86.99727909 81.00229122 87.22326851 81.72790337 C90.70571241 92.90373717 94.23147895 104.06537231 97.78515625 115.21875 C98.0231897 115.96591341 98.26122314 116.71307682 98.50646973 117.48288155 C100.81809302 124.73706257 103.1339148 131.98989389 105.45441055 139.24124146 C111.17721004 157.128363 116.82153997 174.9931809 121.5 193.1875 C121.79334229 194.32227783 122.08668457 195.45705566 122.38891602 196.6262207 C125.14096219 207.36977115 127.62330344 218.16795901 130 229 C130.17539307 228.22736816 130.35078613 227.45473633 130.53149414 226.65869141 C131.21901427 223.64179876 131.91126748 220.62603274 132.60620117 217.61083984 C133.03965963 215.72440264 133.46820912 213.83683944 133.89648438 211.94921875 C139.04523667 189.65681872 145.46811894 167.78369073 152.4375 146 C153.22423676 143.52691439 154.01052369 141.05368565 154.79638672 138.58032227 C156.79925339 132.28188184 158.80924816 125.98574188 160.8213501 119.69024658 C162.33876239 114.9393655 163.85161222 110.18703807 165.36433411 105.43466187 C167.11547002 99.93483554 168.86995209 94.436079 170.625 88.9375 C171.10089066 87.44536987 171.10089066 87.44536987 171.58639526 85.9230957 C175.40649745 73.95436501 179.29869246 62.01307256 183.31118774 50.10728455 C185.15464017 44.61971254 186.89048532 39.1232495 188.5 33.5625 C191.78537202 22.31010084 195.42735559 11.16451379 199 0 C219.46 0 239.92 0 261 0 C259.20516568 5.98278107 257.40715263 11.91991333 255.40307617 17.82836914 C255.16148521 18.5451181 254.91989426 19.26186707 254.67098236 20.00033569 C253.87993131 22.34582632 253.08648677 24.69049922 252.29296875 27.03515625 C251.73007806 28.70230248 251.16732158 30.36949403 250.60469055 32.03672791 C249.10973292 36.46514469 247.61258803 40.89281894 246.11489868 45.3203125 C244.87148616 48.9969085 243.6293082 52.67392117 242.38707542 56.35091591 C235.60308232 76.43026587 228.80686017 96.5053118 221.93969727 116.55639648 C217.14053581 130.56991803 212.38122923 144.59685453 207.625 158.625 C201.10387129 177.85708023 194.5741854 197.08618576 188.02172852 216.30761719 C184.77467464 225.83508316 181.53589899 235.36525742 178.31254578 244.90077209 C176.63881015 249.85198848 174.96307849 254.80252855 173.28738403 259.75308228 C172.47435781 262.1571581 171.66239749 264.56159468 170.85153198 266.96640015 C169.72784521 270.29879999 168.60062298 273.62998439 167.47265625 276.9609375 C167.13493195 277.96573654 166.79720764 278.97053558 166.44924927 280.00578308 C165.98529251 281.37262993 165.98529251 281.37262993 165.51196289 282.76708984 C165.10803062 283.96342545 165.10803062 283.96342545 164.69593811 285.18392944 C164 287 164 287 163 288 C160.91380978 288.09417773 158.82439523 288.11742878 156.73608398 288.11352539 C155.7556311 288.11374443 155.7556311 288.11374443 154.75537109 288.1139679 C152.58557872 288.11326883 150.41587121 288.10547678 148.24609375 288.09765625 C146.74536689 288.09579205 145.24463943 288.09436816 143.74391174 288.09336853 C139.78681774 288.08954352 135.82976022 288.0797134 131.87268066 288.06866455 C127.83765151 288.05845006 123.80261647 288.05387083 119.76757812 288.04882812 C111.84503531 288.03809111 103.92252219 288.0210149 96 288 C95.74152283 287.08032944 95.48304565 286.16065887 95.21673584 285.21311951 C93.40539366 278.81264335 91.56730677 272.44764003 89.390625 266.16015625 C89.0315657 265.11641594 89.0315657 265.11641594 88.66525269 264.05158997 C88.14114206 262.52873114 87.61549232 261.00640131 87.08843994 259.48455811 C85.55287987 255.04868198 84.03107057 250.60808121 82.5078125 246.16796875 C82.16471039 245.16860291 81.82160828 244.16923706 81.46810913 243.1395874 C76.56671306 228.84559512 71.7455288 214.52433828 66.91236115 200.20717239 C64.55203889 193.21587185 62.19027541 186.22505804 59.828125 179.234375 C59.5729221 178.47909578 59.31771919 177.72381657 59.05478287 176.9456501 C54.67982491 163.99918434 50.28561157 151.05936608 45.875 138.125 C41.46766119 125.20007494 37.0723807 112.27114471 32.6953125 99.3359375 C32.46369919 98.65149315 32.23208588 97.9670488 31.99345398 97.26186371 C29.62163503 90.25246798 27.25086343 83.24271896 24.88169861 76.23242569 C20.29099034 62.64942791 15.69001579 49.07033599 11.0390625 35.5078125 C10.2812349 33.29492705 9.52342193 31.08203658 8.765625 28.86914062 C7.37222578 24.8009798 5.9729446 20.7349072 4.5703125 16.66992188 C3.95551595 14.87637516 3.34091942 13.08275986 2.7265625 11.2890625 C2.44648346 10.48300568 2.16640442 9.67694885 1.87783813 8.84646606 C0.83191058 5.77999758 0 3.26402068 0 0 Z " fill="#213D62" transform="translate(565,695)"/>
<path d="M0 0 C55.71496596 0 55.71496596 0 69.8125 6.1875 C70.87029663 6.64141113 70.87029663 6.64141113 71.94946289 7.10449219 C89.79791223 15.07520868 101.13881489 29.40977163 108.27734375 47.1796875 C109.37361082 50.43125701 110.22757243 53.65654538 111 57 C111.29777344 58.27875 111.59554688 59.5575 111.90234375 60.875 C118.57692749 93.40705566 115.39552786 130.88997989 97 159 C86.35895332 173.85218431 69.3671901 181.76957982 52.0625 185.875 C38 188 38 188 0 188 C0 125.96 0 63.92 0 0 Z " fill="#C8D5E7" transform="translate(923,745)"/>
<path d="M0 0 C4.05635285 3.78784723 4.6714838 6.8300695 5.02734375 12.16796875 C4.72201986 26.00931827 -6.92718988 38.24681025 -16.22265625 47.41796875 C-22.62810468 53.21203077 -29.49474228 58.08147175 -36.7890625 62.69140625 C-39.43690537 64.35189853 -39.43690537 64.35189853 -41.22265625 67.41796875 C-42.69765738 79.98978071 -40.20045015 92.9567711 -32.40234375 103.09765625 C-25.13530232 110.83353906 -16.75485495 116.88100537 -5.97265625 117.6496582 C-2.36339405 117.71222207 1.23089143 117.68029551 4.83984375 117.60546875 C6.08701172 117.59193359 7.33417969 117.57839844 8.61914062 117.56445312 C11.67233342 117.52935895 14.72460365 117.48019142 17.77734375 117.41796875 C18.98510581 121.04125494 19.17775267 123.61408402 18.77734375 127.41796875 C14.73970415 131.81187066 9.95619943 133.23910746 4.11328125 133.71875 C-13.49485543 133.77084508 -26.00089946 129.26291451 -39.22265625 117.41796875 C-43.13450242 113.44006889 -46.59275306 109.36837475 -49.22265625 104.41796875 C-49.76792969 105.11148438 -50.31320312 105.805 -50.875 106.51953125 C-61.07521416 119.1128073 -71.65797016 130.06107217 -88.22265625 133.41796875 C-96.91794786 134.22427609 -106.15036352 134.14150481 -114.22265625 130.41796875 C-118.13647694 127.12176642 -118.13647694 127.12176642 -118.59765625 123.35546875 C-118.22265625 120.41796875 -118.22265625 120.41796875 -116.22265625 117.41796875 C-113.859375 117.125 -113.859375 117.125 -110.91015625 117.23046875 C-109.83378906 117.25367188 -108.75742187 117.276875 -107.6484375 117.30078125 C-105.39579656 117.37783852 -103.14319083 117.45593354 -100.890625 117.53515625 C-88.67376546 117.79601446 -79.40769072 114.99934254 -70.31640625 106.671875 C-61.06178445 96.90987262 -56.07550311 83.49567835 -56.28515625 70.1171875 C-57.81486745 64.08120206 -62.0632641 62.10519452 -67.0703125 59.0859375 C-71.81057856 56.20070533 -75.67464795 52.56572226 -79.66015625 48.73046875 C-80.30919922 48.11236328 -80.95824219 47.49425781 -81.62695312 46.85742188 C-83.50471459 45.05669677 -85.36484278 43.23924316 -87.22265625 41.41796875 C-87.84760986 40.81782959 -88.47256348 40.21769043 -89.11645508 39.59936523 C-92.56727097 36.24192598 -95.47783199 32.96994595 -98.03515625 28.85546875 C-98.59847656 27.96730469 -99.16179688 27.07914062 -99.7421875 26.1640625 C-103.187688 19.77306816 -104.34398792 13.59449146 -103.22265625 6.41796875 C-100.57879592 0.25590059 -95.90203981 -2.89308318 -89.93359375 -5.5546875 C-65.58801833 -14.7807485 -22.28364373 -15.8609415 0 0 Z " fill="#223E63" transform="translate(630.22265625,365.58203125)"/>
<path d="M0 0 C52.83394161 0 52.83394161 0 67.875 13.125 C75.04289108 21.03558823 76.68524537 30.12559563 76.29296875 40.515625 C75.34994971 51.73126476 71.78061558 60.97337775 63.125 68.5 C44.91931825 80.70127086 20.3860527 78 0 78 C0 52.26 0 26.52 0 0 Z " fill="#C8D5E7" transform="translate(118,745)"/>
<path d="M0 0 C2.68473238 2.68473238 2.79700446 4.85199663 3.625 8.5625 C6.12155238 19.17192389 9.58639624 29.46518842 12.96533203 39.81933594 C14.58205304 44.78928434 16.16734963 49.76911587 17.75 54.75 C18.04237549 55.66934326 18.33475098 56.58868652 18.63598633 57.53588867 C21.35019729 66.08155259 23.98429845 74.64991709 26.5859375 83.23046875 C27.18225485 85.19532367 27.77861014 87.16016708 28.375 89.125 C28.672854 90.10815186 28.97070801 91.09130371 29.27758789 92.10424805 C30.74908781 96.94699353 32.24035712 101.78165244 33.78515625 106.6015625 C34.2030542 107.90649658 34.2030542 107.90649658 34.62939453 109.23779297 C35.15639297 110.87610533 35.68714185 112.51321743 36.22216797 114.14892578 C37.20699016 117.20883658 38 119.76372367 38 123 C13.58 123 -10.84 123 -36 123 C-35.26255106 117.83785743 -34.50660962 114.14482321 -32.8125 109.375 C-30.64941211 103.14096795 -28.77754719 96.8541021 -27 90.5 C-25.32519914 84.52781723 -23.58632632 78.61577857 -21.5625 72.75 C-18.88898523 64.93643749 -16.71512411 56.99813784 -14.51586914 49.04003906 C-13.0768986 43.83697287 -11.62552218 38.64864964 -10 33.5 C-8.67978181 29.26256942 -7.42508466 25.01494006 -6.23828125 20.73828125 C-5.92181641 19.60261719 -5.60535156 18.46695313 -5.27929688 17.296875 C-4.64179062 14.99927669 -4.00632684 12.70111053 -3.37304688 10.40234375 C-3.08107422 9.34789062 -2.78910156 8.2934375 -2.48828125 7.20703125 C-2.22571533 6.2528833 -1.96314941 5.29873535 -1.69262695 4.31567383 C-1 2 -1 2 0 0 Z " fill="#C7D4E6" transform="translate(425,740)"/>
<path d="M0 0 C2 3 2 3 1.75 6.5 C1 10 1 10 -1 13 C-9.6062412 12.61752623 -16.59725798 10.1613627 -24.52539062 6.97070312 C-45.9466342 -1.30811201 -73.95346009 -1.41293755 -95.08984375 7.73046875 C-111.28417175 15.13944017 -126.20835962 26.92086922 -136.75 41.3125 C-140.26887418 45.83305001 -140.26887418 45.83305001 -143.48046875 46.56640625 C-145.9629427 46.37301798 -147.76067245 46.08889078 -150 45 C-152.34053105 41.48920342 -152.36007567 40.13058227 -152 36 C-144.88292517 16.70289059 -124.01055437 2.77296718 -106.13232422 -5.90673828 C-73.22281704 -20.93648162 -30.36774073 -21.19415238 0 0 Z " fill="#243F64" transform="translate(784,290)"/>
<path d="M0 0 C1.08539063 0.55171875 2.17078125 1.1034375 3.2890625 1.671875 C12.58829777 6.66170856 20.28597644 12.83124554 28 20 C28.95390625 20.88300781 29.9078125 21.76601563 30.890625 22.67578125 C43.8745502 35.17378111 43.8745502 35.17378111 44.125 42.8125 C42.88858166 46.31568529 42.07845131 47.91996533 39 50 C36.1953125 50.44140625 36.1953125 50.44140625 33 50 C30.88638098 48.19605774 29.30595048 46.60884053 27.5625 44.5 C26.84102783 43.67459717 26.84102783 43.67459717 26.10498047 42.83251953 C24.08766723 40.51549118 22.12834357 38.15800396 20.19140625 35.7734375 C7.15981229 19.97953559 -13.79343783 8.93804613 -34 6 C-56.04712383 4.83217053 -76.17046234 6.8107751 -96.5625 15.3125 C-100.19425539 16.78206603 -103.04878963 17.84668794 -107 17 C-109.4375 14.8125 -109.4375 14.8125 -111 12 C-111.087587 8.49651996 -110.21253358 7.24615471 -107.92578125 4.59765625 C-104.53179302 1.58430222 -101.22651843 -0.19381862 -97.125 -2.0625 C-96.00605347 -2.57901123 -96.00605347 -2.57901123 -94.86450195 -3.10595703 C-87.75181008 -6.28539431 -80.62739931 -8.36801141 -73 -10 C-72.0203125 -10.22429687 -71.040625 -10.44859375 -70.03125 -10.6796875 C-46.73501458 -15.35173471 -20.95506717 -10.92785738 0 0 Z " fill="#243F64" transform="translate(485,286)"/>
</svg>
